:FULLY-SPECIFIED
:FORCE-ALL-JOINTS-BE-3DOF
:DEGREES
714
root -11.7101 13.9154 -38.3003 511.903 -61.6129 213.469
lfemur -65.3129 24.809 -1.32752
ltibia 76.1204 0 0
lfoot -8.62596 -7.95996 0
ltoes -2.67905 0 0
rfemur 9.32834 -10.8647 11.716
rtibia 40.0521 0 0
rfoot -24.8932 -27.0653 0
rtoes -28.6911 0 0
lowerback 12.2329 1.43572 8.82392
upperback -1.69531 3.47472 5.87973
thorax -8.58475 1.28562 0.703894
lowerneck -4.0156 4.9539 0.983659
upperneck 3.31785 6.51915 0.760707
head 1.71357 3.28006 0.247274
lclavicle -5.9946e-14 3.16068e-14 0
lhumerus 64.6014 16.3573 112.508
lradius 11.3232 0 0
lwrist -81.9615 0 0
lhand -33.6608 41.132 0
lfingers 7.12502 0 0
lthumb -6.85212 71.0011 0
rclavicle -5.9946e-14 3.16068e-14 0
rhumerus -75.3502 19.4645 -95.4467
rradius 114.654 0 0
rwrist -66.7533 0 0
rhand -8.3884 -40.5589 0
rfingers 7.12502 0 0
rthumb 17.5351 -69.7881 0
715
root -11.718 13.9096 -38.3053 511.849 -61.7512 213.576
lfemur -65.4853 24.8832 -1.38418
ltibia 76.1435 0 0
lfoot -8.74367 -7.95347 0
ltoes -2.71114 0 0
rfemur 9.39636 -10.8675 11.7465
rtibia 40.0497 0 0
rfoot -24.8879 -27.0847 0
rtoes -28.7358 0 0
lowerback 12.2268 1.43666 8.87247
upperback -1.73131 3.4857 5.83519
thorax -8.61478 1.28691 0.627392
lowerneck -3.92437 4.90705 0.903776
upperneck 3.33837 6.45654 0.886993
head 1.69679 3.25039 0.29516
lclavicle -2.02512e-15 -1.09332e-14 0
lhumerus 62.8865 14.1686 106.961
lradius 11.6491 0 0
lwrist -76.7008 0 0
lhand -33.9026 41.9464 0
lfingers 7.12502 0 0
lthumb -7.08551 71.8078 0
rclavicle -2.02512e-15 -1.09332e-14 0
rhumerus -75.335 19.2364 -95.4169
rradius 114.536 0 0
rwrist -66.4644 0 0
rhand -8.09128 -40.2427 0
rfingers 7.12502 0 0
rthumb 17.821 -69.4462 0
716
root -11.7251 13.9034 -38.3128 511.669 -61.8318 213.799
lfemur -65.6578 24.9573 -1.44084
ltibia 76.1511 0 0
lfoot -8.84407 -7.94793 0
ltoes -2.75351 0 0
rfemur 9.447 -10.8696 11.7691
rtibia 40.0427 0 0
rfoot -24.8816 -27.1075 0
rtoes -28.796 0 0
lowerback 12.2178 1.38088 8.87114
upperback -1.69375 3.406 5.86615
thorax -8.57428 1.2505 0.676424
lowerneck -4.24429 4.78152 0.853209
upperneck 3.60023 6.27983 1.01345
head 1.8327 3.16561 0.35231
lclavicle 3.92972e-14 8.46823e-14 0
lhumerus 61.9692 12.7794 103.376
lradius 12.0241 0 0
lwrist -73.5379 0 0
lhand -33.2656 43.4704 0
lfingers 7.12502 0 0
lthumb -6.47058 73.3516 0
rclavicle 3.92972e-14 8.46823e-14 0
rhumerus -75.2199 19.3592 -95.4157
rradius 114.438 0 0
rwrist -66.3152 0 0
rhand -7.74799 -39.9314 0
rfingers 7.12502 0 0
rthumb 18.1513 -69.1044 0
717
root -11.7322 13.896 -38.3187 511.554 -61.8978 213.978
lfemur -65.8283 25.0306 -1.49683
ltibia 76.173 0 0
lfoot -8.92533 -7.94345 0
ltoes -2.8047 0 0
rfemur 9.4786 -10.8709 11.7832
rtibia 40.0316 0 0
rfoot -24.8746 -27.1334 0
rtoes -28.8701 0 0
lowerback 12.162 1.34315 8.88394
upperback -1.68113 3.34861 5.88281
thorax -8.5314 1.22388 0.699209
lowerneck -4.54037 4.76204 0.317147
upperneck 3.82351 6.25781 1.53309
head 1.92355 3.16077 0.614645
lclavicle 5.02056e-14 2.70347e-14 0
lhumerus 61.1734 11.4939 100.097
lradius 12.358 0 0
lwrist -70.5499 0 0
lhand -32.9592 44.716 0
lfingers 7.12502 0 0
lthumb -6.17482 74.606 0
rclavicle 5.02056e-14 2.70347e-14 0
rhumerus -75.1625 19.3768 -95.4338
rradius 114.363 0 0
rwrist -65.9505 0 0
rhand -7.40038 -39.5529 0
rfingers 7.12502 0 0
rthumb 18.4857 -68.6946 0
